# xmcd
#
# Track frame offsets:
#	4500
#	9000
#	13500
#	18000
#	22500
#	27000
#	31500
#	36000
#	40500
#	45000
#	49500
#	54000
#	58500
#	63000
#	67500
#	72000
#
# Disc length: 3721 seconds
#
# Revision: 0
# Processed by: cddbd v1.4PL0 Copyright (c) Steve Scherf et al.
# Submitted via: EasyCDDAExtractor 5.0.4.1
#
DISCID=8d0e4d10
DTITLE=Daniel - Um Homem Apaixonado
DYEAR=1900
DGENRE=
TTITLE0=Um Homem Apaixonado
TTITLE1=Está Morrendo Minha Alma
TTITLE2=Um Milhão De Fantasias
TTITLE3=Um Coração Em Um Milhão
TTITLE4=Dá-me, Dá-me
TTITLE5=O Amor É Poderoso
TTITLE6=Vida Minha
TTITLE7=Só O Amor
TTITLE8=Bota Pra Moer
TTITLE9=Cowboy Da Madrugada
TTITLE10=Um Gato Que Vai
TTITLE11=O Mais Importante É O Verdadeiro Amor
TTITLE12=Palavras
TTITLE13=Brasil, Samba E Forró
TTITLE14=Estorou Um Cano
TTITLE15=Esperança
EXTD=
EXTT0=
EXTT1=
EXTT2=
EXTT3=
EXTT4=
EXTT5=
EXTT6=
EXTT7=
EXTT8=
EXTT9=
EXTT10=
EXTT11=
EXTT12=
EXTT13=
EXTT14=
EXTT15=
PLAYORDER=
